<svg width="56" height="12" viewBox="0 0 56 12" fill="none" xmlns="http://www.w3.org/2000/svg">
<path d="M7.98 8.501C8.09667 8.501 8.19467 8.543 8.274 8.627L9.107 9.516C8.69633 10.0387 8.18533 10.4353 7.574 10.706C6.96733 10.9767 6.244 11.112 5.404 11.112C4.64333 11.112 3.95967 10.9837 3.353 10.727C2.74633 10.4657 2.23067 10.104 1.806 9.642C1.38133 9.18 1.05467 8.63167 0.826 7.997C0.597333 7.36233 0.483 6.66933 0.483 5.918C0.483 5.414 0.536667 4.93567 0.644 4.483C0.756 4.02567 0.917 3.60567 1.127 3.223C1.337 2.84033 1.589 2.495 1.883 2.187C2.18167 1.879 2.51767 1.61767 2.891 1.403C3.26433 1.18367 3.67033 1.018 4.109 0.906C4.55233 0.789333 5.02367 0.730999 5.523 0.730999C5.89633 0.730999 6.24867 0.763666 6.58 0.829C6.916 0.894333 7.22867 0.985333 7.518 1.102C7.80733 1.21867 8.07333 1.361 8.316 1.529C8.56333 1.69233 8.785 1.872 8.981 2.068L8.274 3.034C8.232 3.09467 8.17833 3.14833 8.113 3.195C8.04767 3.24167 7.959 3.265 7.847 3.265C7.735 3.265 7.62067 3.22533 7.504 3.146C7.392 3.06667 7.252 2.978 7.084 2.88C6.92067 2.782 6.713 2.69333 6.461 2.614C6.21367 2.53467 5.89867 2.495 5.516 2.495C5.09133 2.495 4.70167 2.572 4.347 2.726C3.99233 2.88 3.68667 3.104 3.43 3.398C3.178 3.68733 2.982 4.04433 2.842 4.469C2.702 4.89367 2.632 5.37667 2.632 5.918C2.632 6.464 2.70667 6.95167 2.856 7.381C3.01 7.80567 3.21767 8.165 3.479 8.459C3.745 8.753 4.053 8.977 4.403 9.131C4.75767 9.28033 5.13567 9.355 5.537 9.355C5.775 9.355 5.98967 9.34333 6.181 9.32C6.377 9.29667 6.55667 9.257 6.72 9.201C6.888 9.145 7.04433 9.07267 7.189 8.984C7.33833 8.89533 7.48767 8.78333 7.637 8.648C7.68833 8.606 7.742 8.571 7.798 8.543C7.854 8.515 7.91467 8.501 7.98 8.501ZM13.1311 3.671C13.6725 3.671 14.1648 3.75733 14.6081 3.93C15.0515 4.10267 15.4318 4.35 15.7491 4.672C16.0665 4.98933 16.3115 5.37667 16.4841 5.834C16.6568 6.29133 16.7431 6.807 16.7431 7.381C16.7431 7.955 16.6568 8.473 16.4841 8.935C16.3115 9.39233 16.0665 9.782 15.7491 10.104C15.4318 10.426 15.0515 10.6733 14.6081 10.846C14.1648 11.0187 13.6725 11.105 13.1311 11.105C12.5851 11.105 12.0881 11.0187 11.6401 10.846C11.1968 10.6733 10.8165 10.426 10.4991 10.104C10.1818 9.782 9.93446 9.39233 9.75713 8.935C9.58446 8.473 9.49813 7.955 9.49813 7.381C9.49813 6.807 9.58446 6.29133 9.75713 5.834C9.93446 5.37667 10.1818 4.98933 10.4991 4.672C10.8165 4.35 11.1968 4.10267 11.6401 3.93C12.0881 3.75733 12.5851 3.671 13.1311 3.671ZM13.1311 9.656C13.6818 9.656 14.0901 9.467 14.3561 9.089C14.6221 8.70633 14.7551 8.13933 14.7551 7.388C14.7551 6.64133 14.6221 6.079 14.3561 5.701C14.0901 5.31833 13.6818 5.127 13.1311 5.127C12.5665 5.127 12.1511 5.31833 11.8851 5.701C11.6191 6.079 11.4861 6.64133 11.4861 7.388C11.4861 8.13933 11.6191 8.70633 11.8851 9.089C12.1511 9.467 12.5665 9.656 13.1311 9.656ZM19.7482 4.623C19.8929 4.483 20.0422 4.35467 20.1962 4.238C20.3549 4.12133 20.5205 4.021 20.6932 3.937C20.8705 3.853 21.0595 3.78767 21.2602 3.741C21.4655 3.69433 21.6872 3.671 21.9252 3.671C22.3172 3.671 22.6649 3.73867 22.9682 3.874C23.2715 4.00933 23.5259 4.19833 23.7312 4.441C23.9412 4.68367 24.0975 4.973 24.2002 5.309C24.3075 5.645 24.3612 6.01367 24.3612 6.415V11H22.4362V6.415C22.4362 6.01367 22.3429 5.70333 22.1562 5.484C21.9695 5.26 21.6942 5.148 21.3302 5.148C21.0595 5.148 20.8052 5.20633 20.5672 5.323C20.3292 5.43967 20.1029 5.603 19.8882 5.813V11H17.9562V3.783H19.1462C19.3889 3.783 19.5499 3.895 19.6292 4.119L19.7482 4.623ZM28.2959 11.112C27.9692 11.112 27.6799 11.0653 27.4279 10.972C27.1759 10.874 26.9635 10.7363 26.7909 10.559C26.6182 10.3817 26.4875 10.167 26.3989 9.915C26.3102 9.663 26.2659 9.37833 26.2659 9.061V5.169H25.5869C25.4842 5.169 25.3955 5.13633 25.3209 5.071C25.2509 5.00567 25.2159 4.90767 25.2159 4.777V4.021L26.3709 3.811L26.7629 1.942C26.8142 1.732 26.9565 1.627 27.1899 1.627H28.1979V3.825H30.0599V5.169H28.1979V8.935C28.1979 9.13567 28.2445 9.29433 28.3379 9.411C28.4359 9.52767 28.5735 9.586 28.7509 9.586C28.8442 9.586 28.9235 9.57667 28.9889 9.558C29.0542 9.53467 29.1102 9.51133 29.1569 9.488C29.2035 9.46 29.2455 9.43667 29.2829 9.418C29.3249 9.39467 29.3669 9.383 29.4089 9.383C29.4649 9.383 29.5115 9.397 29.5489 9.425C29.5862 9.44833 29.6235 9.49033 29.6609 9.551L30.2419 10.475C29.9759 10.685 29.6749 10.8437 29.3389 10.951C29.0029 11.0583 28.6552 11.112 28.2959 11.112ZM34.8679 7.983C34.3965 8.00633 34.0045 8.04833 33.6919 8.109C33.3792 8.165 33.1295 8.23967 32.9429 8.333C32.7609 8.42633 32.6302 8.53367 32.5509 8.655C32.4762 8.77167 32.4389 8.9 32.4389 9.04C32.4389 9.32 32.5159 9.51833 32.6699 9.635C32.8285 9.75167 33.0479 9.81 33.3279 9.81C33.6499 9.81 33.9275 9.754 34.1609 9.642C34.3989 9.52533 34.6345 9.34567 34.8679 9.103V7.983ZM30.9339 4.784C31.3585 4.40133 31.8275 4.11667 32.3409 3.93C32.8542 3.73867 33.4095 3.643 34.0069 3.643C34.4362 3.643 34.8189 3.713 35.1549 3.853C35.4955 3.993 35.7825 4.189 36.0159 4.441C36.2539 4.68833 36.4359 4.98467 36.5619 5.33C36.6879 5.67533 36.7509 6.05333 36.7509 6.464V11H35.8689C35.6869 11 35.5469 10.9743 35.4489 10.923C35.3555 10.8717 35.2785 10.7643 35.2179 10.601L35.0639 10.139C34.8819 10.2977 34.7045 10.4377 34.5319 10.559C34.3639 10.6803 34.1889 10.783 34.0069 10.867C33.8249 10.9463 33.6289 11.007 33.4189 11.049C33.2135 11.091 32.9825 11.112 32.7259 11.112C32.4085 11.112 32.1192 11.07 31.8579 10.986C31.5965 10.902 31.3702 10.7783 31.1789 10.615C30.9922 10.447 30.8475 10.2393 30.7449 9.992C30.6422 9.74467 30.5909 9.46 30.5909 9.138C30.5909 8.872 30.6585 8.606 30.7939 8.34C30.9292 8.074 31.1602 7.83367 31.4869 7.619C31.8182 7.39967 32.2569 7.22 32.8029 7.08C33.3535 6.93533 34.0419 6.85367 34.8679 6.835V6.464C34.8679 6.01133 34.7722 5.68 34.5809 5.47C34.3895 5.25533 34.1142 5.148 33.7549 5.148C33.4889 5.148 33.2672 5.18067 33.0899 5.246C32.9125 5.30667 32.7562 5.37433 32.6209 5.449C32.4902 5.519 32.3665 5.58667 32.2499 5.652C32.1332 5.71267 31.9979 5.743 31.8439 5.743C31.7085 5.743 31.5942 5.71033 31.5009 5.645C31.4122 5.575 31.3375 5.49333 31.2769 5.4L30.9339 4.784ZM43.4949 5.393C43.4389 5.46767 43.3829 5.526 43.3269 5.568C43.2709 5.60533 43.1916 5.624 43.0889 5.624C42.9956 5.624 42.9046 5.59833 42.8159 5.547C42.7319 5.491 42.6339 5.43267 42.5219 5.372C42.4099 5.30667 42.2769 5.24833 42.1229 5.197C41.9689 5.141 41.7776 5.113 41.5489 5.113C41.2596 5.113 41.0076 5.16667 40.7929 5.274C40.5829 5.37667 40.4079 5.526 40.2679 5.722C40.1279 5.918 40.0229 6.156 39.9529 6.436C39.8876 6.716 39.8549 7.031 39.8549 7.381C39.8549 8.11833 40.0019 8.683 40.2959 9.075C40.5946 9.467 41.0006 9.663 41.5139 9.663C41.6913 9.663 41.8429 9.649 41.9689 9.621C42.0996 9.58833 42.2116 9.54867 42.3049 9.502C42.4029 9.45533 42.4869 9.404 42.5569 9.348C42.6269 9.292 42.6923 9.24067 42.7529 9.194C42.8183 9.14733 42.8813 9.11 42.9419 9.082C43.0073 9.04933 43.0796 9.033 43.1589 9.033C43.3083 9.033 43.4249 9.089 43.5089 9.201L44.0619 9.901C43.8566 10.139 43.6373 10.3373 43.4039 10.496C43.1706 10.65 42.9279 10.7737 42.6759 10.867C42.4286 10.9557 42.1766 11.0163 41.9199 11.049C41.6633 11.0863 41.4089 11.105 41.1569 11.105C40.7136 11.105 40.2936 11.0233 39.8969 10.86C39.5003 10.692 39.1526 10.4493 38.8539 10.132C38.5553 9.81467 38.3173 9.425 38.1399 8.963C37.9673 8.501 37.8809 7.97367 37.8809 7.381C37.8809 6.85367 37.9579 6.36367 38.1119 5.911C38.2659 5.45833 38.4923 5.06633 38.7909 4.735C39.0896 4.40367 39.4583 4.14467 39.8969 3.958C40.3403 3.76667 40.8513 3.671 41.4299 3.671C41.9806 3.671 42.4636 3.75967 42.8789 3.937C43.2943 4.11433 43.6676 4.371 43.9989 4.707L43.4949 5.393ZM47.5322 11.112C47.2055 11.112 46.9162 11.0653 46.6642 10.972C46.4122 10.874 46.1999 10.7363 46.0272 10.559C45.8545 10.3817 45.7239 10.167 45.6352 9.915C45.5465 9.663 45.5022 9.37833 45.5022 9.061V5.169H44.8232C44.7205 5.169 44.6319 5.13633 44.5572 5.071C44.4872 5.00567 44.4522 4.90767 44.4522 4.777V4.021L45.6072 3.811L45.9992 1.942C46.0505 1.732 46.1929 1.627 46.4262 1.627H47.4342V3.825H49.2962V5.169H47.4342V8.935C47.4342 9.13567 47.4809 9.29433 47.5742 9.411C47.6722 9.52767 47.8099 9.586 47.9872 9.586C48.0805 9.586 48.1599 9.57667 48.2252 9.558C48.2905 9.53467 48.3465 9.51133 48.3932 9.488C48.4399 9.46 48.4819 9.43667 48.5192 9.418C48.5612 9.39467 48.6032 9.383 48.6452 9.383C48.7012 9.383 48.7479 9.397 48.7852 9.425C48.8225 9.44833 48.8599 9.49033 48.8972 9.551L49.4782 10.475C49.2122 10.685 48.9112 10.8437 48.5752 10.951C48.2392 11.0583 47.8915 11.112 47.5322 11.112ZM54.8182 5.267C54.7669 5.34633 54.7132 5.40467 54.6572 5.442C54.6059 5.47467 54.5335 5.491 54.4402 5.491C54.3469 5.491 54.2512 5.46767 54.1532 5.421C54.0552 5.37433 53.9455 5.32533 53.8242 5.274C53.7029 5.218 53.5629 5.16667 53.4042 5.12C53.2502 5.07333 53.0705 5.05 52.8652 5.05C52.5525 5.05 52.3099 5.11533 52.1372 5.246C51.9645 5.372 51.8782 5.54 51.8782 5.75C51.8782 5.89467 51.9272 6.016 52.0252 6.114C52.1232 6.212 52.2515 6.29833 52.4102 6.373C52.5735 6.443 52.7579 6.51067 52.9632 6.576C53.1685 6.63667 53.3785 6.70433 53.5932 6.779C53.8125 6.85367 54.0249 6.94 54.2302 7.038C54.4355 7.136 54.6175 7.25967 54.7762 7.409C54.9395 7.55367 55.0702 7.731 55.1682 7.941C55.2662 8.14633 55.3152 8.396 55.3152 8.69C55.3152 9.04 55.2499 9.36433 55.1192 9.663C54.9932 9.957 54.8065 10.2113 54.5592 10.426C54.3119 10.6407 54.0039 10.8087 53.6352 10.93C53.2665 11.0513 52.8419 11.112 52.3612 11.112C52.1139 11.112 51.8689 11.0887 51.6262 11.042C51.3835 11 51.1525 10.9393 50.9332 10.86C50.7139 10.776 50.5085 10.6803 50.3172 10.573C50.1259 10.4657 49.9602 10.349 49.8202 10.223L50.2682 9.502C50.3195 9.418 50.3825 9.35267 50.4572 9.306C50.5365 9.25933 50.6369 9.236 50.7582 9.236C50.8749 9.236 50.9822 9.26633 51.0802 9.327C51.1782 9.383 51.2879 9.446 51.4092 9.516C51.5305 9.58133 51.6729 9.64433 51.8362 9.705C52.0042 9.761 52.2119 9.789 52.4592 9.789C52.6459 9.789 52.8069 9.768 52.9422 9.726C53.0775 9.684 53.1872 9.628 53.2712 9.558C53.3552 9.48333 53.4159 9.40167 53.4532 9.313C53.4952 9.21967 53.5162 9.124 53.5162 9.026C53.5162 8.86733 53.4649 8.739 53.3622 8.641C53.2642 8.53833 53.1335 8.44967 52.9702 8.375C52.8115 8.30033 52.6272 8.23267 52.4172 8.172C52.2072 8.11133 51.9925 8.04367 51.7732 7.969C51.5585 7.89433 51.3462 7.80567 51.1362 7.703C50.9309 7.60033 50.7465 7.472 50.5832 7.318C50.4245 7.15933 50.2939 6.96567 50.1912 6.737C50.0932 6.50833 50.0442 6.23067 50.0442 5.904C50.0442 5.60533 50.1025 5.323 50.2192 5.057C50.3359 4.78633 50.5109 4.54833 50.7442 4.343C50.9775 4.13767 51.2669 3.97433 51.6122 3.853C51.9622 3.73167 52.3659 3.671 52.8232 3.671C53.3365 3.671 53.8032 3.755 54.2232 3.923C54.6432 4.091 54.9885 4.31033 55.2592 4.581L54.8182 5.267Z" fill="white"/>
</svg>
